<?xml version="1.0" standalone="no"?><svg xmlns="http://www.w3.org/2000/svg" viewBox="0 0 1440 320"><path fill="#a2d9ff" fill-opacity="1" d="M0,128L17.1,128C34.3,128,69,128,103,117.3C137.1,107,171,85,206,106.7C240,128,274,192,309,229.3C342.9,267,377,277,411,261.3C445.7,245,480,203,514,160C548.6,117,583,75,617,96C651.4,117,686,203,720,197.3C754.3,192,789,96,823,96C857.1,96,891,192,926,197.3C960,203,994,117,1029,112C1062.9,107,1097,181,1131,197.3C1165.7,213,1200,171,1234,149.3C1268.6,128,1303,128,1337,128C1371.4,128,1406,128,1423,128L1440,128L1440,320L1422.9,320C1405.7,320,1371,320,1337,320C1302.9,320,1269,320,1234,320C1200,320,1166,320,1131,320C1097.1,320,1063,320,1029,320C994.3,320,960,320,926,320C891.4,320,857,320,823,320C788.6,320,754,320,720,320C685.7,320,651,320,617,320C582.9,320,549,320,514,320C480,320,446,320,411,320C377.1,320,343,320,309,320C274.3,320,240,320,206,320C171.4,320,137,320,103,320C68.6,320,34,320,17,320L0,320Z"></path></svg>